<svg width="326.000000" height="326.000000" viewBox="0 0 326 326" fill="none" xmlns="http://www.w3.org/2000/svg" xmlns:xlink="http://www.w3.org/1999/xlink">
	<desc>
			Created with Pixso.
	</desc>
	<defs>
		<clipPath id="clip57_2256">
			<rect id="pic" rx="0.000000" width="325.000000" height="325.000000" transform="translate(0.500000 0.500000)" fill="white" fill-opacity="0"/>
		</clipPath>
	</defs>
	<rect id="pic" rx="0.000000" width="325.000000" height="325.000000" transform="translate(0.500000 0.500000)" fill="#FFFFFF" fill-opacity="0"/>
	<g clip-path="url(#clip57_2256)">
		<path id="path20" d="M276.04 146.58C276.04 146.58 299.9 177.7 238.45 218.42C177 259.14 91.34 272.61 74.29 228.76C57.24 184.91 73.16 197.89 138.66 190.39C204.15 182.88 247.76 114.78 258.3 122.2C268.83 129.63 276.04 146.58 276.04 146.58Z" fill="#F9A332" fill-opacity="1.000000" fill-rule="nonzero"/>
		<path id="path24" d="M127.19 250.2C108.7 250.2 93.01 245.84 83.01 236.19C87.43 234.1 90.94 231.97 93.87 230.2C97.21 228.18 99.91 226.55 101.59 226.55C101.77 226.55 101.94 226.56 102.09 226.6C102.95 226.82 103.84 227.74 104.84 229.43C107.72 234.3 111.65 236.97 115.94 236.97C116.12 236.97 116.29 236.97 116.46 236.96C121.01 236.74 125.21 233.43 127.69 228.12C129.16 224.97 131.08 223.06 133.56 222.27C134.47 221.98 135.5 221.83 136.63 221.83C140.76 221.83 146.29 223.79 153.11 227.69C153.14 227.71 153.16 227.72 153.18 227.74C156.02 229.42 159.2 230.44 162.96 230.54C163.27 230.55 163.57 230.55 163.87 230.55C174.27 230.55 179.17 225.8 182.13 222.93C182.91 222.18 184.07 221.05 184.47 221.02C184.47 221.02 184.81 221.07 185.6 221.85C182.11 225.94 174.94 233.86 164 233.86C159.3 233.86 153.91 232.4 147.82 228.55C145.14 226.86 142.4 226.16 139.92 226.16C132.85 226.16 127.92 231.92 132.81 236.95C134.82 239.03 138.86 239.75 143.51 239.75C151.01 239.75 160.09 237.86 164.72 236.77C174.01 234.5 183.48 231.48 192.89 227.8C194.61 228.57 196.37 228.97 198.04 228.97C199.68 228.97 201.23 228.58 202.56 227.74C203.68 227.03 205.48 225.42 205.94 222.25C217.15 217.09 228.13 211.03 238.45 204.19C262.43 188.29 273.41 173.87 277.9 162.18C277.92 164.02 277.78 166.02 277.41 168.18C276.8 171.68 275.63 175.23 273.91 178.81C267.94 188.81 257.14 200.31 238.45 212.7C203.5 235.85 160.72 250.2 127.19 250.2ZM203.99 212.42C203.88 212.18 203.76 211.93 203.64 211.67C203.26 210.85 202.91 209.99 202.59 209.08C202.65 209.08 202.7 209.08 202.75 209.08C214.7 209.08 219.25 203.17 224.76 196.02C226.7 193.48 228.72 190.87 231.3 188.11C235.96 183.14 243.09 182.83 249.99 182.54C254.52 182.35 258.87 182.16 262.18 180.53C254.14 188.51 243.56 180.52 237.23 190.55C230.03 201.95 223.63 209.95 210.02 211.55C207.81 211.81 205.81 212.1 203.99 212.42ZM267.72 171.38C267.75 170.76 267.75 170.12 267.72 169.44C267.48 164.02 267.45 160.31 268.04 158.62C268.36 157.71 268.77 157.47 270.95 156.52C272.38 155.89 274.22 155.09 276.51 153.66C276.84 154.67 277.15 155.81 277.39 157.07C268.4 159.23 271.91 161.42 267.72 171.38Z" fill="#BF6700" fill-opacity="1.000000" fill-rule="nonzero"/>
		<path id="path28" d="M256.38 124.34C255.76 124.34 254.22 124.7 250.84 127.07C246.91 129.83 241.8 134.39 235.88 139.66C214.18 158.99 181.4 188.21 138.96 193.07C123.45 194.85 110.74 195.48 100.54 195.99C84.78 196.78 74.37 197.29 71.64 201.51C69.02 205.55 71.81 214.93 76.81 227.78C80.91 238.34 89.44 245.75 102.16 249.78C135.1 260.24 191.79 246.1 236.96 216.17C260.72 200.42 274.71 183.83 277.41 168.18C279.53 155.91 274.12 148.53 273.89 148.22C273.75 148.04 273.64 147.84 273.55 147.64C273.46 147.42 266.5 131.28 256.74 124.41C256.74 124.41 256.64 124.34 256.38 124.34ZM127.23 258.65C117.33 258.65 108.35 257.42 100.53 254.93C86.17 250.38 76.5 241.9 71.77 229.74C65.72 214.19 63.19 204.61 67.1 198.57C71.34 192.04 81.62 191.52 100.27 190.6C110.4 190.09 123 189.46 138.35 187.71C179.09 183.04 211.1 154.51 232.29 135.63C246.45 123.01 254.25 116.05 259.85 120C270.25 127.32 277.36 142.87 278.4 145.25C279.6 146.97 284.99 155.61 282.76 168.89C279.85 186.35 265.44 203.77 239.94 220.67C217.76 235.37 191.75 246.94 166.71 253.26C152.47 256.85 139.18 258.65 127.23 258.65Z" fill="#6D184E" fill-opacity="1.000000" fill-rule="nonzero"/>
		<path id="path32" d="M63 201.15C63 201.15 47.4 198.75 46 209.35C44.6 219.95 61.8 215.75 61.6 223.95C61.4 232.15 61.2 242.95 78.81 235.55C96.41 228.15 101.21 218.77 106.81 228.26C112.41 237.75 121.41 236.15 125.61 227.15C129.81 218.15 138.07 216.46 154.25 225.71C162.9 230.65 167.6 223.6 173.47 216.56C178.58 210.43 184.57 204.31 194.82 206.05C216.88 209.8 217.83 199.15 229.63 186.55C241.43 173.94 266.23 187.75 265.43 169.54C264.63 151.34 266.53 158.19 277.48 150.24C288.44 142.29 288.29 123.69 266.83 125.34C245.38 126.99 192.02 203.95 63 201.15Z" fill="#48C75A" fill-opacity="1.000000" fill-rule="nonzero"/>
		<path id="path36" d="M265.62 154.31C266.43 150.95 270.29 148.91 278.31 142.67C279.73 141.56 281.14 139.73 282.33 137.89C282.04 141.71 279.76 145.76 276.14 148.39C273.13 150.57 270.91 151.54 269.12 152.32C267.64 152.96 266.5 153.57 265.62 154.31Z" fill="#B6E9BD" fill-opacity="1.000000" fill-rule="nonzero"/>
		<path id="path40" d="M209.38 203.64C216.44 199.81 219.81 191.71 227.64 182.74C237.51 171.44 255.9 178.66 263.01 172.35C262.81 173.59 262.38 174.57 261.71 175.29C259.64 177.55 254.85 177.75 249.79 177.97C242.34 178.28 233.89 178.64 227.96 184.98C225.23 187.9 223.05 190.73 221.13 193.22C217.22 198.3 214.36 202.02 209.38 203.64Z" fill="#B6E9BD" fill-opacity="1.000000" fill-rule="nonzero"/>
		<path id="path44" d="M69.13 235.74C67.88 235.74 66.89 235.49 66.16 235C63.67 233.29 63.79 228.15 63.89 224.01C64.03 218.47 58.76 216.84 54.92 215.64C49.84 214.06 47.82 213.08 48.27 209.65C48.51 207.82 49.3 206.42 50.67 205.39C52.49 204.02 55.13 203.46 57.54 203.27C64.35 213.86 74.77 219.75 86.94 219.75C88.48 219.75 90.06 219.65 91.65 219.46C106.73 217.4 121.9 214.18 137.03 209.84C137.62 210.64 138.2 211.44 138.77 212.23C140.31 214.34 141.8 216.4 143.3 218.31C140.87 217.61 138.64 217.25 136.61 217.25C135.01 217.25 133.53 217.47 132.17 217.91C128.46 219.08 125.55 221.87 123.54 226.18C121.79 229.93 119.06 232.25 116.24 232.38C116.16 232.39 116.08 232.39 116 232.39C113.36 232.39 110.81 230.54 108.78 227.1C107.11 224.27 105.34 222.7 103.21 222.16C102.67 222.03 102.13 221.96 101.59 221.96C98.64 221.96 95.54 223.84 91.5 226.28C88 228.4 83.65 231.03 77.92 233.44C74.29 234.97 71.32 235.74 69.13 235.74ZM202.96 204.54C202.46 204.54 201.94 204.53 201.4 204.5C200.35 198.84 200.53 192.15 202.19 185.16C221.87 176.06 240.23 165.38 257.01 153.26C265.16 147.17 269.91 138.92 270.99 129.63C271.13 129.6 271.26 129.58 271.4 129.55C272.57 136.5 271.39 145.58 262.03 154.14C243.23 171.34 222.03 175.94 212.42 185.75C206.64 191.65 206.01 199.23 206.43 204.31C205.37 204.47 204.22 204.54 202.96 204.54Z" fill="#539256" fill-opacity="1.000000" fill-rule="nonzero"/>
		<path id="path48" d="M59.46 203.2C56.66 203.2 53 203.64 50.67 205.39C49.3 206.42 48.51 207.82 48.27 209.65C47.82 213.08 49.84 214.06 54.92 215.64C58.76 216.84 64.03 218.48 63.89 224.01C63.79 228.15 63.67 233.29 66.16 235C68.17 236.37 72.24 235.83 77.92 233.44C83.65 231.03 88 228.4 91.5 226.28C96.29 223.39 99.75 221.29 103.21 222.16C105.34 222.7 107.11 224.27 108.78 227.1C110.87 230.64 113.52 232.5 116.24 232.38C119.06 232.25 121.79 229.93 123.54 226.18C125.55 221.87 128.46 219.08 132.17 217.91C137.81 216.11 145.4 218.02 155.38 223.72C161.39 227.16 164.64 223.7 170.34 216.76C175.85 210.04 182.71 201.67 195.21 203.79C210.94 206.47 214.56 201.76 221.13 193.22C223.05 190.73 225.22 187.9 227.96 184.98C233.89 178.64 242.34 178.28 249.79 177.97C254.85 177.75 259.64 177.55 261.71 175.29C262.79 174.11 263.26 172.26 263.15 169.64C262.58 156.82 263.25 154.88 269.12 152.32C270.91 151.54 273.14 150.57 276.14 148.39C281.1 144.79 283.54 138.53 281.81 133.84C280.12 129.23 274.86 127.01 267.01 127.62C261.75 128.02 253.16 134.39 242.27 142.46C226.8 153.92 205.6 169.62 176.4 182.27C141.94 197.2 103.76 204.33 62.95 203.44C62.86 203.44 62.76 203.43 62.66 203.41C61.96 203.31 60.81 203.2 59.46 203.2ZM69.1 240.31C66.91 240.31 65.08 239.8 63.58 238.78C59.03 235.67 59.19 229.14 59.32 223.9C59.36 222.12 57.92 221.37 53.56 220.02C49.25 218.67 42.73 216.65 43.73 209.05C44.14 205.97 45.55 203.51 47.94 201.72C53.29 197.7 61.87 198.68 63.19 198.86C155.78 200.83 208.21 161.99 239.55 138.78C251.91 129.62 260.09 123.56 266.66 123.06C280.76 121.97 284.96 129.14 286.11 132.26C288.56 138.91 285.49 147.25 278.83 152.09C275.42 154.57 272.84 155.69 270.95 156.52C268.77 157.47 268.36 157.71 268.04 158.62C267.45 160.31 267.48 164.02 267.72 169.44C267.89 173.34 267.03 176.26 265.09 178.38C261.73 182.04 256.02 182.29 249.99 182.54C243.09 182.83 235.96 183.14 231.3 188.11C228.72 190.87 226.7 193.48 224.76 196.02C218.12 204.64 212.89 211.44 194.44 208.31C184.57 206.63 179.13 213.25 173.87 219.67C168.67 226.02 162.76 233.21 153.11 227.69C144.43 222.73 137.85 220.91 133.56 222.27C131.08 223.06 129.16 224.97 127.69 228.12C125.21 233.43 121.01 236.74 116.46 236.96C111.96 237.18 107.83 234.5 104.84 229.43C103.84 227.74 102.95 226.82 102.09 226.6C100.48 226.2 97.56 227.97 93.87 230.2C90.24 232.39 85.74 235.12 79.69 237.66C75.5 239.43 71.99 240.31 69.1 240.31Z" fill="#6D184E" fill-opacity="1.000000" fill-rule="nonzero"/>
		<path id="path52" d="M230.06 87.53C227.28 88.64 224.89 90.4 222.93 92.65C210.98 100.87 184.96 117.43 151.94 130.48C119.05 143.81 88.78 149.78 74.46 152.07C71.49 151.8 68.55 152.18 65.77 153.3C53.08 158.37 48.51 176.8 55.58 194.44C62.64 212.08 76.67 218.95 91.34 217.19C124 212.73 153.19 203.32 177.06 193.21C201.31 184.06 228.92 170.73 255.64 151.43C267.48 142.58 272.89 127.93 265.83 110.28C258.77 92.64 242.75 82.45 230.06 87.53Z" fill="#DB2839" fill-opacity="1.000000" fill-rule="nonzero"/>
		<path id="path56" d="M86.85 215.18C73.75 215.18 63.27 207.49 57.7 193.59C57.28 192.53 56.9 191.47 56.56 190.4C57.43 190.1 58.32 189.8 59.23 189.51C58.59 192.46 58.48 195.49 60.13 198C61.77 200.49 64.73 201.91 69.19 202.33C69.84 202.39 70.48 202.42 71.1 202.42C80.36 202.42 86.31 195.93 90.74 191.12C93.44 188.17 96 185.38 98.1 185.38C98.12 185.38 98.13 185.38 98.15 185.38C99.37 185.4 100.83 186.4 102.46 188.33C108.27 195.18 115.86 198.9 123.96 198.9C124.32 198.9 124.69 198.89 125.06 198.88C126.03 198.84 127 198.74 127.96 198.59C130.2 201.01 132.22 203.48 134.09 205.91C119.73 209.95 105.35 212.97 91.07 214.92C89.64 215.09 88.23 215.18 86.85 215.18ZM97.37 191.04C97.01 191.04 96.7 191.23 96.41 191.65C95.25 193.32 92.78 195.67 90.18 197.92C88.47 199.4 88.98 202.14 91.09 202.96C94.85 204.44 98.87 205.16 102.98 205.16C104.44 205.16 105.91 205.07 107.39 204.89C107.44 204.88 107.48 204.88 107.53 204.87C110.38 204.48 111.05 200.65 108.51 199.29C102.04 195.81 99.17 191.04 97.37 191.04ZM203.92 179.29C206.67 171.52 211.28 163.64 218.07 156.6C219.11 156.69 220.17 156.74 221.24 156.74C222.17 156.74 223.09 156.7 224.01 156.6C221.63 159.34 219.55 162 217.8 164.4C216.28 166.49 217.94 169.12 220.15 169.12C220.57 169.12 221.01 169.03 221.45 168.81C227.79 165.78 234.23 162.46 240.72 158.84C229.1 166.32 216.81 173.15 203.92 179.29ZM238.88 142.84C239.02 142.36 239.13 141.89 239.23 141.44C250.06 135.76 259.09 132.59 266.26 130.73C266.16 131.3 266.05 131.86 265.92 132.41C255.71 133.03 246.6 137.27 238.88 142.84Z" fill="#A92142" fill-opacity="1.000000" fill-rule="nonzero"/>
		<path id="path60" d="M72.63 154.28C70.53 154.28 68.51 154.66 66.62 155.42C61.18 157.6 57.23 162.67 55.49 169.71C53.68 177.02 54.46 185.5 57.7 193.59C63.85 208.95 76.01 216.72 91.07 214.92C119.35 211.05 147.99 203.04 176.16 191.11C176.19 191.09 176.22 191.08 176.25 191.07C204.87 180.27 231.13 166.3 254.3 149.57C266.41 140.51 269.85 126.49 263.7 111.13C257.12 94.69 242.41 85.05 230.91 89.66L230.07 87.53L230.91 89.66C228.53 90.61 226.43 92.12 224.65 94.15C224.52 94.29 224.38 94.42 224.23 94.53C211.69 103.16 185.75 119.58 152.78 132.61C119.96 145.92 89.85 151.93 74.82 154.33C74.63 154.36 74.44 154.37 74.25 154.35C73.71 154.3 73.17 154.28 72.63 154.28ZM86.94 219.75C71.99 219.75 59.69 210.86 53.45 195.29C49.86 186.32 49 176.84 51.04 168.61C53.15 160.1 58.08 153.91 64.91 151.17C67.89 149.98 71.07 149.51 74.38 149.77C89.3 147.37 118.86 141.42 151.08 128.36C183.44 115.57 208.94 99.48 221.4 90.92C223.62 88.45 226.24 86.59 229.21 85.4C243.05 79.86 260.43 90.64 267.95 109.43C274.83 126.61 270.74 142.99 257.01 153.26C233.5 170.24 206.9 184.39 177.91 195.34C149.37 207.42 120.35 215.54 91.65 219.46C90.06 219.65 88.48 219.75 86.94 219.75Z" fill="#6D184E" fill-opacity="1.000000" fill-rule="nonzero"/>
		<path id="path64" d="M59.8 172.54C59.8 172.54 44.4 178.75 40.6 189.35C38.34 195.64 44.84 192.13 54.72 188.62C61.47 186.22 69.8 183.82 78.01 184.55C85.49 185.21 88.37 182.97 90.45 180.72C93.99 176.91 95.26 173.1 113.01 183.55C141.22 200.15 143.82 227.75 163.02 228.25C170.71 228.45 175.13 225.97 178.12 223.5C182.61 219.78 183.91 216.08 188.22 221.35C195.42 230.15 209.07 228.55 201.57 212.65C194.07 196.75 198.82 161.74 232.83 142.34C266.83 122.94 285.04 127.14 286.64 124.34C288.24 121.54 280.63 107.13 256.43 106.74C232.23 106.33 171.42 168.14 59.8 172.54Z" fill="#FCAF15" fill-opacity="1.000000" fill-rule="nonzero"/>
		<path id="path68" d="M163.83 225.97C163.58 225.97 163.33 225.97 163.08 225.96C154.24 225.73 149.31 218.94 142.48 209.54C139.71 205.73 136.65 201.51 132.93 197.28C137.72 195.49 141.95 192.26 145.08 187.88C148.04 183.74 150.6 182.15 153.77 182.15C156.83 182.15 160.47 183.64 165.58 185.73C168.8 187.05 172.46 188.55 176.72 189.93C179.49 190.82 182.21 191.26 184.81 191.26C189.43 191.26 193.66 189.87 197.11 187.16C196.64 188.04 196.22 188.93 195.85 189.82C191.71 192.04 187.64 192.86 183.72 192.86C178.08 192.86 172.76 191.15 168.03 189.43C163.31 187.72 159.19 186.01 155.92 186.01C154.1 186.01 152.55 186.54 151.32 187.9C146.91 192.74 142.55 197.58 139.89 199.07C147.79 209.82 152.62 218.87 163.5 219.15C163.76 219.16 164.02 219.16 164.28 219.16C171.62 219.16 175.79 216.4 178.6 213.64C181.4 210.87 182.85 208.11 184.76 208.11C185.72 208.11 186.8 208.81 188.22 210.55C190.79 213.69 194.18 215.5 197.13 215.81C198.44 219.74 198.22 222.54 197.09 224.31C194.86 223.98 192.13 222.52 190 219.9C188.73 218.36 187 216.58 184.73 216.45C184.64 216.44 184.55 216.44 184.47 216.44C182.26 216.44 180.65 217.99 178.95 219.64C176.17 222.33 172.39 225.97 163.83 225.97ZM42.65 190.43C42.68 190.33 42.72 190.23 42.76 190.12C44.14 186.25 47.34 182.98 50.66 180.46C52.75 180.42 54.9 180.25 57.04 180.09C58.36 179.99 59.6 179.9 60.83 179.83C60.95 179.82 61.06 179.82 61.15 179.82C61.47 179.82 61.67 179.85 61.78 179.88C61.89 180.66 61.27 182.69 60.76 184.27C56.57 185.44 52.69 186.9 49.35 188.16C47.01 189.04 44.22 190.09 42.65 190.43Z" fill="#D18126" fill-opacity="1.000000" fill-rule="nonzero"/>
		<path id="path72" d="M78.29 184.57C90.54 185.55 90.18 178.6 94.78 177.07C86.07 175.12 88.39 183.57 78.29 184.57Z" fill="#F8CE36" fill-opacity="1.000000" fill-rule="nonzero"/>
		<path id="path76" d="M40.37 192.25C42.32 195.26 57.12 185.35 72.78 184.48C59.97 183.7 47 190.25 40.37 192.25Z" fill="#F8CE36" fill-opacity="1.000000" fill-rule="nonzero"/>
		<path id="path80" d="M198.04 215.86C197.74 215.86 197.44 215.84 197.13 215.81C196.8 214.83 196.38 213.78 195.85 212.65C193.23 207.09 192.28 198.41 195.85 189.82C196.16 189.65 196.47 189.48 196.78 189.3C195.51 198.35 196.42 207.08 199.5 213.63C199.81 214.27 200.07 214.89 200.3 215.49C199.61 215.74 198.85 215.86 198.04 215.86Z" fill="#FED78A" fill-opacity="1.000000" fill-rule="nonzero"/>
		<path id="path84" d="M198.05 224.39C197.74 224.39 197.42 224.36 197.09 224.31C198.22 222.54 198.44 219.74 197.13 215.81C197.44 215.84 197.74 215.86 198.04 215.86C198.85 215.86 199.61 215.74 200.3 215.49C201.91 219.63 201.86 222.76 200.11 223.87C199.56 224.21 198.86 224.39 198.05 224.39ZM195.85 189.82C196.22 188.93 196.64 188.05 197.11 187.16C197.11 187.16 197.12 187.16 197.12 187.15C197 187.87 196.88 188.58 196.78 189.3C196.47 189.48 196.16 189.65 195.85 189.82Z" fill="#E8C093" fill-opacity="1.000000" fill-rule="nonzero"/>
		<path id="path88" d="M204.99 166.08C204.77 163.92 204.31 161.7 203.61 159.46C202.59 156.18 203.18 155.44 203.21 155.41C203.47 155.1 204.19 154.99 205.13 154.99C206.93 154.99 209.56 155.41 211.54 155.73C211.82 155.78 212.11 155.82 212.41 155.87C209.4 159.28 206.97 162.74 204.99 166.08Z" fill="#D18126" fill-opacity="1.000000" fill-rule="nonzero"/>
		<path id="path92" d="M96.64 174.5C100.2 174.5 105.42 176.42 114.17 181.57C128.14 189.8 136.09 200.74 142.48 209.54C149.3 218.94 154.24 225.73 163.08 225.96C172.17 226.18 176.09 222.41 178.95 219.64C180.71 217.93 182.38 216.32 184.73 216.45C187 216.58 188.73 218.36 189.99 219.9C193.29 223.93 197.97 225.22 200.11 223.87C202.12 222.6 201.89 218.68 199.5 213.63C195.14 204.39 195.13 190.76 199.47 178.07C203.22 167.11 211.85 151.67 231.69 140.35C256.18 126.38 272.78 124.43 280.75 123.49C282.13 123.33 283.65 123.15 284.49 122.96C284.32 122.17 283.72 120.61 281.99 118.6C279.58 115.81 272.26 109.29 256.39 109.02C249.03 108.88 237.39 115.35 221.26 124.29C187.1 143.2 135.52 171.75 60.31 174.82C58.09 175.78 45.86 181.45 42.76 190.12C42.72 190.23 42.68 190.33 42.65 190.43C44.22 190.09 47.01 189.04 49.35 188.16C57.02 185.27 67.53 181.32 78.21 182.27C85.47 182.92 87.41 180.71 89.48 178.38C91.45 176.15 93.34 174.5 96.64 174.5ZM163.87 230.55C163.57 230.55 163.27 230.55 162.96 230.54C151.86 230.25 145.79 221.9 138.77 212.23C132.32 203.34 125 193.26 111.85 185.52C104.7 181.31 99.83 179.2 96.98 179.07C95.13 179 94.43 179.69 92.9 181.42C90.57 184.06 87.36 187.67 77.8 186.83C68.16 185.97 58.22 189.71 50.97 192.44C44.58 194.85 41.05 196.18 38.91 194.07C37.11 192.3 38.12 189.5 38.45 188.57C42.55 177.14 58.28 170.69 58.95 170.42C59.19 170.32 59.45 170.27 59.71 170.26C134.06 167.33 185.2 139.02 219.04 120.28C235.79 111.01 247.9 104.31 256.47 104.45C273.64 104.73 283.82 111.98 287.63 118.66C288.54 120.26 289.88 123.28 288.62 125.47C287.58 127.29 285.48 127.54 281.29 128.03C273.61 128.94 257.64 130.82 233.96 144.33C202.46 162.3 196.04 195.56 203.64 211.67C208.69 222.37 204.56 226.47 202.56 227.74C198.1 230.56 191.02 228.39 186.45 222.8C185.06 221.1 184.47 221.02 184.47 221.02C184.07 221.05 182.91 222.18 182.14 222.93C179.17 225.8 174.27 230.55 163.87 230.55Z" fill="#6D184E" fill-opacity="1.000000" fill-rule="nonzero"/>
		<path id="path96" d="M180.8 202.07C180.8 202.07 173.82 215.06 163.5 213.47C155.67 212.27 168.75 213.8 172.15 204.32C176.07 193.37 182.82 199.07 180.8 202.07Z" fill="#F8CE36" fill-opacity="1.000000" fill-rule="nonzero"/>
		<path id="path100" d="M69.41 149.04C69.41 149.04 41.8 150.54 38.5 165.84C35.2 181.15 49.6 178.15 60.7 177.55C71.81 176.95 50.2 198.25 69.41 200.05C77.43 200.8 82.79 196.21 87.15 191.61C93.23 185.21 97.4 178.82 104.21 186.85C115.91 200.65 134.21 199.15 143.22 186.55C152.22 173.95 159.72 182.05 177.42 187.75C195.12 193.45 207.13 178.45 201.42 160.14C198.59 151.06 204.71 152.32 212.65 153.59C220.71 154.87 230.65 156.16 235.03 146.64C243.73 127.74 225.13 124.44 247.33 119.94C269.53 115.44 279.13 113.94 275.53 101.79C271.93 89.63 263.53 80.63 235.33 92.63C207.13 104.63 181.62 157.14 69.41 149.04Z" fill="#48C75A" fill-opacity="1.000000" fill-rule="nonzero"/>
		<path id="path104" d="M64.97 186.13C66.16 182.46 67.17 179.3 65.42 177.02C64.52 175.84 63.07 175.24 61.13 175.24C60.95 175.24 60.77 175.25 60.58 175.26C59.31 175.33 57.98 175.43 56.69 175.53C54.37 175.7 51.93 175.89 49.67 175.89C49.41 175.89 49.15 175.89 48.89 175.88C50.44 170.36 53.31 164.98 48.18 164.98C48.04 164.98 47.89 164.98 47.74 164.99C45.55 165.1 43.24 165.31 40.96 165.46C42.14 161.52 45.35 158.67 49.2 156.6C49.64 158.85 50.16 161.08 50.74 163.27C59.9 167.91 69.79 171.07 80.19 172.84C76.03 176.41 71.69 183.18 64.97 186.13ZM111.03 184.05C108.44 184.05 105.82 183.62 103.26 182.74C101.89 181.69 100.51 181.07 99.11 180.87C96.3 179.29 93.63 177.11 91.24 174.29C91.21 174.25 91.18 174.21 91.14 174.17C94.41 174.42 97.72 174.55 101.06 174.55C111.27 174.55 121.82 173.4 132.55 171.18C131.79 171.97 131.02 172.9 130.25 173.99C125.59 180.51 118.45 184.05 111.03 184.05ZM171.84 176.42C169.52 176.42 167.05 176.02 164.45 175.19C156.31 172.57 150.32 169.43 145.35 168.04C153.4 165.78 161.51 162.93 169.62 159.54C169.65 159.53 169.69 159.51 169.72 159.5C169.73 159.5 169.74 159.49 169.75 159.49C169.78 159.48 169.8 159.47 169.82 159.46C169.83 159.45 169.84 159.45 169.85 159.45C169.88 159.44 169.91 159.42 169.93 159.41C169.94 159.41 169.95 159.41 169.95 159.4C169.99 159.39 170.02 159.37 170.05 159.36L170.05 159.36C170.09 159.35 170.13 159.33 170.16 159.32C170.16 159.31 170.16 159.31 170.17 159.31C170.2 159.3 170.23 159.29 170.26 159.27C170.27 159.27 170.28 159.27 170.28 159.26C170.31 159.25 170.34 159.24 170.37 159.23C170.37 159.23 170.38 159.22 170.38 159.22C170.42 159.21 170.45 159.19 170.49 159.18L170.49 159.18C170.56 159.15 170.63 159.12 170.7 159.09C170.7 159.09 170.71 159.08 170.71 159.08C170.74 159.07 170.77 159.06 170.81 159.04C170.81 159.04 170.81 159.04 170.82 159.04C170.96 158.98 171.1 158.92 171.24 158.86L171.25 158.86C171.57 158.72 171.89 158.58 172.21 158.44L172.21 158.44C172.35 158.38 172.5 158.32 172.64 158.26L172.64 158.25C172.78 158.19 172.92 158.13 173.07 158.07C173.07 158.07 173.07 158.07 173.07 158.07C173.22 158 173.35 157.94 173.49 157.88C173.5 157.88 173.5 157.88 173.5 157.88C173.53 157.86 173.57 157.85 173.6 157.84C173.6 157.83 173.6 157.83 173.61 157.83C173.71 157.79 173.82 157.74 173.92 157.69C173.92 157.69 173.93 157.69 173.93 157.69C173.96 157.67 173.99 157.66 174.02 157.65C174.03 157.65 174.03 157.64 174.04 157.64C174.07 157.63 174.1 157.61 174.14 157.6L174.14 157.6C174.21 157.57 174.28 157.53 174.35 157.5C174.35 157.5 174.36 157.5 174.36 157.5C174.39 157.49 174.42 157.47 174.45 157.46C174.45 157.46 174.46 157.45 174.47 157.45C174.49 157.44 174.52 157.43 174.55 157.41C174.56 157.41 174.56 157.41 174.57 157.4C174.64 157.38 174.7 157.35 174.77 157.32C174.78 157.31 174.79 157.31 174.8 157.3C174.82 157.29 174.85 157.28 174.87 157.27C174.88 157.27 174.89 157.26 174.9 157.26C174.92 157.25 174.94 157.24 174.97 157.23C174.98 157.22 174.99 157.22 175 157.21C175.03 157.2 175.05 157.19 175.08 157.18C175.08 157.17 175.09 157.17 175.1 157.17C175.13 157.15 175.17 157.14 175.2 157.12C175.21 157.12 175.21 157.12 175.22 157.11C175.24 157.1 175.27 157.09 175.29 157.08C175.3 157.08 175.32 157.07 175.33 157.06C175.35 157.06 175.37 157.05 175.39 157.04C175.41 157.03 175.42 157.03 175.43 157.02C175.45 157.01 175.47 157 175.49 157C175.5 156.99 175.52 156.98 175.53 156.98C175.55 156.97 175.56 156.96 175.58 156.95C175.61 156.94 175.64 156.92 175.67 156.91C175.69 156.9 175.7 156.9 175.71 156.89C175.73 156.88 175.75 156.87 175.77 156.87C175.78 156.86 175.79 156.85 175.81 156.85C175.83 156.84 175.85 156.83 175.86 156.82C175.88 156.82 175.89 156.81 175.9 156.81C175.92 156.8 175.94 156.79 175.96 156.78C175.97 156.78 175.97 156.78 175.97 156.78C176.05 156.74 176.13 156.7 176.22 156.66C176.22 156.66 176.22 156.66 176.22 156.66C176.25 156.65 176.28 156.63 176.31 156.62L176.31 156.62C180.72 154.61 185.01 152.48 189.16 150.23C192.39 164.67 184.53 176.42 171.84 176.42ZM208.39 141.92C206.81 141.92 205.2 141.79 203.63 141.6C211.19 136.62 218.18 131.21 224.49 125.4C224.29 127.87 223.6 130.73 222.06 134.08C219.19 140.32 213.94 141.92 208.39 141.92ZM242.12 105.8C245.55 101.08 248.59 96.17 251.2 91.11C251.03 90.74 250.86 90.38 250.69 90.01C253.15 89.52 255.42 89.27 257.48 89.27C259.43 89.27 261.19 89.49 262.76 89.94C265.39 99.97 258.39 102.41 242.12 105.8Z" fill="#539256" fill-opacity="1.000000" fill-rule="nonzero"/>
		<path id="path108" d="M123.96 194.32C123.89 194.32 123.81 194.32 123.74 194.32C127.8 192.54 131.43 189.65 134.22 185.74C137.93 180.55 141.39 178.68 145.35 178.68C146.21 178.68 147.1 178.77 148.02 178.93C145.78 180.1 143.58 182.1 141.35 185.22C137.42 190.72 131.41 194.03 124.86 194.3C124.56 194.32 124.26 194.32 123.96 194.32Z" fill="#A4E3AD" fill-opacity="1.000000" fill-rule="nonzero"/>
		<path id="path112" d="M186.22 186.64C195.13 182.53 198.56 171.28 195.91 157.76C194.85 152.4 197.19 151.07 201.15 151.07C201.29 151.07 201.44 151.07 201.59 151.07C200.88 151.38 200.27 151.82 199.75 152.41C197.68 154.79 198.47 158.35 199.24 160.82C201.88 169.29 200.46 177.58 195.55 182.44C193.02 184.95 189.83 186.36 186.22 186.64ZM221.41 152.16C220.91 152.16 220.4 152.14 219.89 152.12C224.6 151.42 228.89 149.16 231.52 143.45C240.74 123.42 221.03 119.92 244.55 115.15C260.71 111.88 270.56 110.1 273.92 105.14C274.16 107.2 273.71 108.3 273.29 109C270.99 112.82 262.25 114.59 249.04 117.26L246.87 117.69C239.34 119.22 235.97 120.68 234.46 123.09C233.07 125.3 233.67 127.62 234.29 130.09C235.22 133.73 236.37 138.25 232.95 145.68C230.65 150.67 226.61 152.16 221.41 152.16Z" fill="#A4E3AD" fill-opacity="1.000000" fill-rule="nonzero"/>
		<path id="path116" d="M61.13 175.25C63.07 175.25 64.51 175.84 65.42 177.02C67.18 179.31 66.15 182.51 64.95 186.21C63.85 189.59 62.6 193.43 63.95 195.48C64.77 196.73 66.68 197.49 69.62 197.77C77.71 198.53 82.84 192.95 87.36 188.02C90.81 184.26 94.06 180.7 98.24 180.8C100.87 180.85 103.4 182.35 105.96 185.37C111.09 191.42 117.81 194.6 124.86 194.3C131.41 194.03 137.42 190.72 141.35 185.22C149.29 174.11 156.85 177.21 167.31 181.5C170.46 182.79 174.03 184.25 178.12 185.57C185.07 187.8 191.26 186.69 195.55 182.44C200.46 177.58 201.88 169.29 199.24 160.82C198.47 158.35 197.68 154.8 199.75 152.41C202.19 149.59 206.86 150.34 212.27 151.21C221.83 152.75 229.44 153.32 232.95 145.68C236.37 138.25 235.22 133.72 234.29 130.09C233.66 127.63 233.07 125.3 234.46 123.09C235.97 120.69 239.33 119.22 246.87 117.69L249.04 117.26C262.25 114.59 270.99 112.82 273.29 109C273.86 108.04 274.49 106.33 273.34 102.44C271.53 96.31 268.84 92.59 264.88 90.72C258.82 87.87 249.18 89.22 236.23 94.74C229.54 97.58 222.8 102.98 214.99 109.22C202.8 118.96 187.63 131.1 164.86 139.95C138.25 150.31 107.02 154.03 69.4 151.34C67.38 151.48 43.52 153.42 40.74 166.33C39.99 169.82 40.23 172.3 41.45 173.71C43.88 176.5 50.69 175.98 56.69 175.53C57.98 175.43 59.31 175.33 60.58 175.26C60.77 175.25 60.95 175.25 61.13 175.25ZM71.1 202.42C70.48 202.42 69.84 202.39 69.19 202.33C64.73 201.91 61.77 200.49 60.13 198C57.57 194.11 59.24 188.95 60.59 184.8C61.12 183.17 61.9 180.75 61.78 179.88C61.63 179.84 61.34 179.8 60.83 179.83C59.6 179.9 58.36 179.99 57.04 180.09C49.62 180.65 41.94 181.24 38 176.72C35.74 174.13 35.17 170.41 36.26 165.36C39.89 148.55 68.08 146.82 69.28 146.75C69.38 146.75 69.47 146.75 69.57 146.76C153.16 152.79 187.24 125.54 212.13 105.64C220.2 99.19 227.17 93.62 234.43 90.53C248.85 84.39 259.44 83.1 266.83 86.58C272.05 89.05 275.52 93.67 277.73 101.14C278.98 105.36 278.81 108.7 277.21 111.36C273.87 116.91 264.86 118.73 249.94 121.74L247.79 122.18C242.2 123.31 239.02 124.44 238.34 125.52C238.01 126.05 238.27 127.17 238.73 128.96C239.71 132.84 241.21 138.69 237.11 147.6C231.86 158.99 219.63 157.03 211.54 155.73C208.53 155.25 203.98 154.51 203.21 155.41C203.18 155.44 202.59 156.18 203.61 159.46C206.81 169.72 205 179.53 198.77 185.69C193.29 191.13 185.25 192.67 176.72 189.93C172.46 188.55 168.8 187.06 165.58 185.73C155.2 181.48 150.9 179.72 145.08 187.88C140.32 194.54 133.02 198.55 125.06 198.88C116.55 199.23 108.53 195.48 102.46 188.33C100.83 186.4 99.37 185.4 98.15 185.38C98.13 185.38 98.12 185.38 98.1 185.38C96 185.38 93.44 188.17 90.74 191.12C86.31 195.93 80.36 202.42 71.1 202.42Z" fill="#6D184E" fill-opacity="1.000000" fill-rule="nonzero"/>
		<path id="path120" d="M169.62 159.54C206.64 144.07 236.15 120.38 251.2 91.11C234.48 54.95 198.16 29.72 155.87 29.04C97.12 28.09 48.24 75.29 47.22 134.04C47.04 144.16 48.28 153.96 50.73 163.27C84.03 180.13 126.83 177.42 169.62 159.54Z" fill="#F9A332" fill-opacity="1.000000" fill-rule="nonzero"/>
		<path id="path124" d="M170.43 30.26L170.43 30.26L170.43 30.26ZM170.32 30.24C170.32 30.24 170.32 30.24 170.32 30.24C170.32 30.24 170.32 30.24 170.32 30.24ZM170.27 30.24C170.26 30.24 170.27 30.24 170.26 30.23L170.27 30.24ZM170.21 30.23C170.21 30.23 170.21 30.23 170.2 30.22C170.21 30.23 170.21 30.23 170.21 30.23ZM170.15 30.22L170.15 30.22L170.15 30.22ZM169.99 30.19C169.98 30.19 169.98 30.19 169.98 30.19C169.98 30.19 169.98 30.19 169.99 30.19ZM169.71 30.15C169.71 30.15 169.71 30.15 169.7 30.15C169.71 30.15 169.71 30.15 169.71 30.15ZM169.66 30.15C169.65 30.15 169.65 30.14 169.65 30.14C169.65 30.14 169.65 30.15 169.66 30.15ZM169.61 30.14C169.6 30.14 169.59 30.13 169.59 30.13C169.6 30.14 169.6 30.14 169.61 30.14ZM169.56 30.13C169.54 30.13 169.54 30.13 169.53 30.13C169.54 30.13 169.55 30.13 169.56 30.13ZM169.5 30.12C169.49 30.12 169.48 30.12 169.47 30.12C169.48 30.12 169.49 30.12 169.5 30.12ZM169.44 30.11C169.43 30.11 169.42 30.11 169.41 30.11C169.42 30.11 169.43 30.11 169.44 30.11ZM169.38 30.11C169.37 30.1 169.37 30.1 169.35 30.1C169.36 30.1 169.37 30.1 169.38 30.11ZM169.33 30.1C169.31 30.09 169.3 30.09 169.29 30.09C169.3 30.09 169.31 30.09 169.33 30.1ZM169.27 30.09C169.26 30.09 169.25 30.09 169.24 30.08C169.25 30.09 169.26 30.09 169.27 30.09ZM169.21 30.08C169.2 30.08 169.19 30.08 169.18 30.08C169.19 30.08 169.2 30.08 169.21 30.08ZM169.15 30.07C169.14 30.07 169.13 30.07 169.12 30.07C169.13 30.07 169.14 30.07 169.15 30.07ZM169.09 30.06C169.08 30.06 169.07 30.06 169.06 30.06C169.07 30.06 169.08 30.06 169.09 30.06ZM169.03 30.06C169.02 30.05 169.01 30.05 168.99 30.05C169.01 30.05 169.02 30.05 169.03 30.06ZM168.98 30.05C168.96 30.05 168.94 30.04 168.92 30.04C168.94 30.04 168.96 30.05 168.98 30.05ZM168.91 30.04C168.89 30.03 168.88 30.03 168.86 30.03C168.88 30.03 168.89 30.04 168.91 30.04ZM168.84 30.03C168.83 30.03 168.82 30.03 168.8 30.02C168.82 30.03 168.83 30.03 168.84 30.03ZM168.78 30.02C168.77 30.02 168.76 30.02 168.74 30.01C168.76 30.02 168.77 30.02 168.78 30.02ZM168.72 30.01C168.71 30.01 168.7 30.01 168.69 30.01C168.7 30.01 168.71 30.01 168.72 30.01ZM168.66 30C168.65 30 168.64 30 168.63 30C168.64 30 168.65 30 168.66 30ZM168.61 30C168.59 30 168.58 29.99 168.57 29.99C168.58 29.99 168.59 30 168.61 30ZM168.55 29.99C168.54 29.99 168.52 29.99 168.51 29.98C168.52 29.99 168.54 29.99 168.55 29.99ZM168.49 29.98C168.48 29.98 168.46 29.98 168.45 29.98C168.46 29.98 168.48 29.98 168.49 29.98ZM168.43 29.97C168.42 29.97 168.4 29.97 168.39 29.97C168.4 29.97 168.42 29.97 168.43 29.97ZM168.37 29.96C168.36 29.96 168.34 29.96 168.33 29.96C168.34 29.96 168.36 29.96 168.37 29.96ZM168.31 29.96C168.3 29.96 168.29 29.95 168.27 29.95C168.28 29.95 168.3 29.96 168.31 29.96ZM168.25 29.95C168.23 29.95 168.22 29.94 168.2 29.94C168.22 29.94 168.24 29.95 168.25 29.95ZM168.2 29.94C168.18 29.94 168.16 29.94 168.14 29.94C168.16 29.94 168.18 29.94 168.2 29.94ZM168.14 29.94C168.02 29.92 167.9 29.9 167.78 29.89C167.9 29.9 168.02 29.92 168.14 29.94ZM167.78 29.89C167.76 29.88 167.74 29.88 167.72 29.88C167.74 29.88 167.76 29.88 167.78 29.89ZM167.72 29.88C167.7 29.88 167.68 29.88 167.66 29.87C167.68 29.88 167.7 29.88 167.72 29.88ZM167.66 29.87C167.62 29.87 167.58 29.86 167.54 29.86C167.58 29.86 167.62 29.87 167.66 29.87ZM167.53 29.86C167.52 29.85 167.5 29.85 167.48 29.85C167.5 29.85 167.52 29.85 167.53 29.86ZM167.48 29.85C167.46 29.85 167.44 29.84 167.42 29.84C167.44 29.84 167.46 29.85 167.48 29.85ZM167.42 29.84C164.15 29.44 160.83 29.18 157.48 29.07C160.83 29.18 164.15 29.44 167.42 29.84ZM157.48 29.07C157.46 29.07 157.44 29.07 157.42 29.07C157.44 29.07 157.46 29.07 157.48 29.07ZM157.42 29.07C157.4 29.07 157.38 29.07 157.36 29.07C157.38 29.07 157.4 29.07 157.42 29.07ZM157.36 29.07C157.34 29.07 157.32 29.07 157.3 29.07C157.32 29.07 157.34 29.07 157.36 29.07ZM157.29 29.07C157.28 29.07 157.25 29.07 157.24 29.07C157.25 29.07 157.28 29.07 157.29 29.07ZM157.23 29.07C157.21 29.07 157.19 29.07 157.18 29.07C157.19 29.07 157.21 29.07 157.23 29.07ZM157.17 29.07C157.15 29.07 157.13 29.07 157.11 29.07C157.13 29.07 157.15 29.07 157.17 29.07ZM157.11 29.07C157.09 29.06 157.07 29.06 157.05 29.06C157.07 29.06 157.09 29.06 157.11 29.07ZM157.05 29.06C156.92 29.06 156.8 29.06 156.68 29.05C156.8 29.06 156.92 29.06 157.05 29.06ZM156.67 29.05C156.65 29.05 156.63 29.05 156.62 29.05C156.64 29.05 156.65 29.05 156.67 29.05ZM156.61 29.05C156.59 29.05 156.58 29.05 156.56 29.05C156.58 29.05 156.59 29.05 156.61 29.05ZM156.55 29.05C156.53 29.05 156.51 29.05 156.5 29.05C156.51 29.05 156.53 29.05 156.55 29.05ZM156.48 29.05C156.47 29.05 156.45 29.05 156.44 29.05C156.45 29.05 156.47 29.05 156.48 29.05ZM156.42 29.05C156.41 29.05 156.39 29.05 156.38 29.05C156.39 29.05 156.41 29.05 156.42 29.05ZM156.36 29.05C156.35 29.05 156.33 29.05 156.32 29.05C156.33 29.05 156.34 29.05 156.36 29.05ZM156.3 29.05C156.28 29.05 156.27 29.05 156.26 29.04C156.27 29.05 156.28 29.05 156.3 29.05ZM156.24 29.04C156.22 29.04 156.21 29.04 156.2 29.04C156.21 29.04 156.22 29.04 156.24 29.04ZM156.17 29.04C156.16 29.04 156.15 29.04 156.14 29.04C156.15 29.04 156.16 29.04 156.17 29.04ZM156.11 29.04C156.1 29.04 156.09 29.04 156.08 29.04C156.09 29.04 156.1 29.04 156.11 29.04ZM156.05 29.04C156.04 29.04 156.03 29.04 156.02 29.04C156.03 29.04 156.04 29.04 156.05 29.04ZM155.99 29.04C155.98 29.04 155.96 29.04 155.95 29.04C155.96 29.04 155.98 29.04 155.99 29.04ZM155.93 29.04C155.91 29.04 155.89 29.04 155.87 29.04C155.89 29.04 155.91 29.04 155.93 29.04ZM155.87 29.04C155.82 29.04 155.76 29.04 155.71 29.03C155.77 29.04 155.82 29.04 155.87 29.04ZM153.32 29.03C153.46 29.03 153.6 29.02 153.74 29.02C153.75 29.02 153.77 29.02 153.78 29.02C153.63 29.03 153.47 29.03 153.32 29.03Z" fill="#FFF6AF" fill-opacity="1.000000" fill-rule="nonzero"/>
		<path id="path128" d="M57.96 89.33C75.21 53.98 111.41 29.51 152.92 29.04C153.05 29.03 153.18 29.03 153.32 29.03C153.47 29.03 153.63 29.03 153.78 29.03C153.8 29.03 153.81 29.03 153.82 29.03C153.93 29.03 154.04 29.03 154.16 29.03C154.67 29.03 155.19 29.03 155.71 29.04C155.76 29.04 155.82 29.04 155.87 29.04C155.89 29.04 155.91 29.04 155.93 29.04C155.94 29.04 155.94 29.04 155.95 29.04C155.96 29.04 155.98 29.04 155.99 29.04C156 29.04 156.01 29.04 156.02 29.04C156.03 29.04 156.04 29.04 156.05 29.04C156.06 29.04 156.07 29.04 156.08 29.04C156.09 29.04 156.1 29.04 156.11 29.04C156.12 29.04 156.13 29.04 156.14 29.04C156.15 29.04 156.16 29.04 156.17 29.05C156.18 29.05 156.19 29.05 156.2 29.05C156.21 29.05 156.22 29.05 156.23 29.05C156.24 29.05 156.25 29.05 156.26 29.05C156.27 29.05 156.28 29.05 156.29 29.05C156.3 29.05 156.31 29.05 156.32 29.05C156.33 29.05 156.34 29.05 156.36 29.05C156.36 29.05 156.37 29.05 156.38 29.05C156.39 29.05 156.41 29.05 156.42 29.05C156.43 29.05 156.43 29.05 156.44 29.05C156.45 29.05 156.47 29.05 156.48 29.05C156.49 29.05 156.49 29.05 156.5 29.05C156.51 29.05 156.53 29.05 156.54 29.05C156.55 29.05 156.55 29.05 156.56 29.05C156.58 29.05 156.59 29.05 156.61 29.05L156.62 29.05C156.63 29.05 156.65 29.05 156.67 29.05C156.67 29.05 156.67 29.05 156.68 29.05C156.8 29.06 156.92 29.06 157.05 29.06C157.05 29.06 157.05 29.06 157.05 29.06C157.07 29.06 157.09 29.06 157.11 29.06C157.11 29.06 157.11 29.06 157.11 29.06C157.13 29.07 157.15 29.07 157.17 29.07C157.17 29.07 157.17 29.07 157.18 29.07C157.19 29.07 157.21 29.07 157.23 29.07C157.23 29.07 157.24 29.07 157.24 29.07C157.25 29.07 157.28 29.07 157.29 29.07C157.3 29.07 157.29 29.07 157.3 29.07C157.32 29.07 157.34 29.07 157.36 29.07C157.36 29.07 157.35 29.07 157.36 29.07C157.38 29.07 157.4 29.07 157.42 29.07L157.42 29.07C157.44 29.08 157.46 29.08 157.48 29.08C157.48 29.08 157.48 29.08 157.48 29.08C160.83 29.18 164.15 29.44 167.42 29.84L167.42 29.84C167.44 29.85 167.46 29.85 167.48 29.85C167.5 29.85 167.52 29.86 167.54 29.86L167.54 29.86C167.58 29.86 167.62 29.87 167.66 29.87C167.68 29.88 167.69 29.88 167.71 29.88C167.72 29.88 167.72 29.88 167.72 29.88C167.74 29.88 167.75 29.89 167.77 29.89C167.78 29.89 167.78 29.89 167.78 29.89C167.9 29.9 168.02 29.92 168.14 29.94C168.16 29.94 168.18 29.94 168.2 29.94C168.22 29.95 168.23 29.95 168.25 29.95C168.26 29.95 168.26 29.95 168.27 29.95C168.28 29.95 168.3 29.96 168.32 29.96C168.32 29.96 168.32 29.96 168.33 29.96C168.34 29.96 168.36 29.96 168.37 29.97C168.38 29.97 168.38 29.97 168.39 29.97C168.4 29.97 168.41 29.97 168.43 29.97C168.43 29.97 168.44 29.98 168.45 29.98C168.46 29.98 168.47 29.98 168.49 29.98C168.49 29.98 168.5 29.98 168.51 29.98C168.52 29.99 168.53 29.99 168.55 29.99C168.55 29.99 168.56 29.99 168.56 29.99C168.58 29.99 168.59 30 168.6 30C168.61 30 168.62 30 168.62 30C168.64 30 168.65 30 168.66 30.01C168.67 30.01 168.68 30.01 168.68 30.01C168.7 30.01 168.71 30.01 168.72 30.01C168.73 30.01 168.73 30.02 168.74 30.02C168.75 30.02 168.77 30.02 168.78 30.02C168.79 30.02 168.8 30.02 168.8 30.03C168.82 30.03 168.83 30.03 168.85 30.03C168.85 30.03 168.85 30.03 168.86 30.03C168.88 30.03 168.89 30.04 168.91 30.04C168.91 30.04 168.92 30.04 168.92 30.04C168.94 30.04 168.96 30.05 168.98 30.05C168.98 30.05 168.98 30.05 168.99 30.05C169 30.05 169.02 30.05 169.04 30.06C169.04 30.06 169.05 30.06 169.06 30.06C169.07 30.06 169.08 30.06 169.09 30.07C169.1 30.07 169.11 30.07 169.12 30.07C169.13 30.07 169.14 30.07 169.15 30.07C169.16 30.07 169.17 30.08 169.18 30.08C169.19 30.08 169.2 30.08 169.21 30.08C169.22 30.08 169.23 30.08 169.24 30.09C169.25 30.09 169.26 30.09 169.27 30.09C169.27 30.09 169.29 30.09 169.29 30.09C169.3 30.09 169.31 30.1 169.32 30.1C169.33 30.1 169.34 30.1 169.35 30.1C169.36 30.1 169.37 30.11 169.38 30.11C169.39 30.11 169.4 30.11 169.41 30.11C169.42 30.11 169.43 30.11 169.44 30.11C169.45 30.12 169.46 30.12 169.47 30.12C169.48 30.12 169.49 30.12 169.5 30.12C169.51 30.12 169.52 30.12 169.53 30.13C169.54 30.13 169.54 30.13 169.55 30.13C169.56 30.13 169.58 30.13 169.59 30.14C169.59 30.14 169.6 30.14 169.6 30.14C169.62 30.14 169.63 30.14 169.64 30.14C169.65 30.14 169.65 30.14 169.66 30.15C169.67 30.15 169.69 30.15 169.7 30.15C169.7 30.15 169.71 30.15 169.71 30.15C169.8 30.17 169.89 30.18 169.98 30.19C169.98 30.19 169.98 30.19 169.98 30.19C170.02 30.2 170.06 30.2 170.1 30.21C170.12 30.21 170.13 30.22 170.15 30.22L170.16 30.22C170.17 30.22 170.19 30.22 170.21 30.23C170.21 30.23 170.21 30.23 170.21 30.23C170.23 30.23 170.24 30.23 170.26 30.24C170.27 30.24 170.26 30.24 170.27 30.24C170.29 30.24 170.3 30.24 170.32 30.24C170.32 30.24 170.32 30.24 170.32 30.24C170.34 30.25 170.36 30.25 170.38 30.25C170.4 30.26 170.41 30.26 170.43 30.26L170.43 30.26C203.88 35.39 232.22 56.01 247.9 84.58C229.7 59.16 201.38 41.48 168.84 37.42C168.15 41.36 161.65 44.44 153.74 44.44C145.96 44.44 139.55 41.47 138.68 37.63C119.48 40.31 101.74 47.78 86.73 58.8C86.76 58.75 86.78 58.7 86.81 58.65L86.81 58.65C86.65 58.8 86.5 58.94 86.34 59.09C75.17 67.36 65.53 77.62 57.96 89.33Z" fill="#FCD199" fill-opacity="1.000000" fill-rule="nonzero"/>
		<path id="path132" d="M169.62 159.54C169.65 159.53 169.69 159.52 169.72 159.5C169.69 159.52 169.65 159.53 169.62 159.54ZM169.75 159.49C169.77 159.48 169.8 159.47 169.82 159.46C169.79 159.47 169.78 159.48 169.75 159.49ZM169.85 159.45C169.88 159.43 169.9 159.42 169.93 159.41C169.9 159.42 169.88 159.43 169.85 159.45ZM169.95 159.4C169.99 159.39 170.02 159.38 170.05 159.36C170.02 159.38 169.99 159.39 169.95 159.4ZM170.05 159.36C170.09 159.35 170.12 159.33 170.16 159.32C170.12 159.33 170.09 159.35 170.05 159.36ZM170.17 159.31C170.2 159.3 170.23 159.29 170.26 159.27C170.23 159.29 170.2 159.3 170.17 159.31ZM170.28 159.27C170.31 159.25 170.34 159.24 170.37 159.23C170.34 159.24 170.31 159.25 170.28 159.27ZM170.38 159.22C170.42 159.21 170.45 159.2 170.48 159.18C170.45 159.2 170.42 159.21 170.38 159.22ZM170.49 159.18C170.56 159.15 170.63 159.12 170.7 159.09C170.63 159.12 170.56 159.15 170.49 159.18ZM170.71 159.09C170.74 159.07 170.77 159.06 170.8 159.04C170.77 159.06 170.74 159.07 170.71 159.09ZM170.81 159.04C170.96 158.98 171.1 158.92 171.24 158.86C171.1 158.92 170.96 158.98 170.81 159.04ZM171.24 158.86C171.57 158.72 171.88 158.58 172.21 158.44C171.89 158.58 171.56 158.72 171.24 158.86ZM172.21 158.44C172.35 158.38 172.49 158.32 172.64 158.26C172.5 158.32 172.35 158.38 172.21 158.44ZM172.64 158.25C172.78 158.19 172.92 158.13 173.06 158.07C172.92 158.13 172.78 158.19 172.64 158.25ZM173.07 158.07C173.21 158.01 173.35 157.94 173.49 157.88C173.35 157.94 173.21 158 173.07 158.07ZM173.5 157.88C173.53 157.87 173.57 157.85 173.6 157.84C173.57 157.85 173.53 157.87 173.5 157.88ZM173.61 157.83C173.71 157.79 173.82 157.74 173.92 157.7C173.82 157.74 173.71 157.79 173.61 157.83ZM173.93 157.69C173.96 157.67 173.99 157.66 174.02 157.65C173.99 157.66 173.96 157.68 173.93 157.69ZM174.04 157.64C174.07 157.63 174.1 157.61 174.14 157.6C174.1 157.61 174.07 157.63 174.04 157.64ZM174.14 157.6C174.2 157.57 174.28 157.54 174.34 157.51C174.28 157.54 174.2 157.57 174.14 157.6ZM174.36 157.5C174.39 157.49 174.42 157.47 174.45 157.46C174.42 157.47 174.39 157.49 174.36 157.5ZM174.46 157.45C174.49 157.44 174.52 157.43 174.55 157.41C174.52 157.43 174.49 157.44 174.46 157.45ZM174.57 157.41C174.64 157.38 174.7 157.35 174.77 157.32C174.7 157.35 174.64 157.38 174.57 157.41ZM174.8 157.3C174.82 157.29 174.84 157.28 174.87 157.27C174.84 157.28 174.82 157.29 174.8 157.3ZM174.9 157.26C174.92 157.25 174.94 157.24 174.97 157.23C174.94 157.24 174.92 157.25 174.9 157.26ZM175 157.21C175.03 157.2 175.05 157.19 175.08 157.18C175.05 157.19 175.02 157.2 175 157.21ZM175.1 157.17C175.13 157.15 175.16 157.14 175.2 157.13C175.16 157.14 175.13 157.15 175.1 157.17ZM175.22 157.12C175.25 157.1 175.27 157.09 175.29 157.08C175.27 157.09 175.24 157.1 175.22 157.12ZM175.33 157.07C175.35 157.06 175.37 157.05 175.39 157.04C175.37 157.05 175.35 157.06 175.33 157.07ZM175.43 157.02C175.45 157.01 175.47 157 175.48 157C175.47 157 175.45 157.01 175.43 157.02ZM175.53 156.98C175.54 156.97 175.56 156.96 175.58 156.95C175.56 156.96 175.54 156.97 175.53 156.98ZM175.67 156.91C175.69 156.9 175.7 156.9 175.71 156.89C175.7 156.9 175.68 156.91 175.67 156.91ZM175.77 156.87C175.78 156.86 175.79 156.86 175.81 156.85C175.79 156.86 175.78 156.86 175.77 156.87ZM175.86 156.82C175.88 156.82 175.89 156.81 175.9 156.81C175.89 156.81 175.88 156.82 175.86 156.82ZM175.96 156.78C175.96 156.78 175.97 156.78 175.97 156.78C175.97 156.78 175.96 156.78 175.96 156.78ZM176.21 156.66C176.22 156.66 176.22 156.66 176.22 156.66C176.22 156.66 176.22 156.66 176.21 156.66ZM176.3 156.62L176.31 156.62L176.3 156.62Z" fill="#5B6D54" fill-opacity="1.000000" fill-rule="nonzero"/>
		<path id="path136" d="M101.08 174.54C92.89 174.54 84.92 173.8 77.24 172.29C73.46 171.35 69.75 170.22 66.13 168.88C59.46 166.42 54.69 160.5 53.61 153.48C52.69 147.53 52.26 141.42 52.37 135.18C52.89 105.18 65.91 78.19 86.34 59.09C86.47 58.99 86.6 58.89 86.73 58.8C78.98 73.25 74.46 89.66 74.15 107.1C74.15 107.43 74.14 107.76 74.14 108.09C73.99 126.38 86.99 142.1 104.97 145.52C112.4 146.92 120.1 147.61 128 147.61C149.82 147.61 173.19 142.37 196.56 132.61C213.14 125.68 228.21 117.09 241.15 107.1C225.95 127.4 203.36 144.28 176.31 156.62L176.3 156.62C176.28 156.64 176.25 156.65 176.22 156.66C176.22 156.66 176.22 156.66 176.21 156.66C176.13 156.7 176.05 156.74 175.97 156.77C175.97 156.78 175.96 156.78 175.96 156.78C175.94 156.79 175.92 156.8 175.9 156.81C175.89 156.81 175.88 156.82 175.87 156.82C175.85 156.83 175.83 156.84 175.81 156.85C175.8 156.85 175.78 156.86 175.77 156.87C175.75 156.87 175.73 156.88 175.71 156.89C175.7 156.9 175.69 156.9 175.67 156.91C175.64 156.92 175.61 156.94 175.58 156.95C175.56 156.96 175.55 156.97 175.53 156.98C175.51 156.98 175.5 156.99 175.48 157C175.47 157 175.45 157.01 175.43 157.02C175.42 157.02 175.4 157.03 175.39 157.04C175.37 157.05 175.35 157.06 175.33 157.06C175.32 157.07 175.31 157.07 175.29 157.08C175.27 157.09 175.25 157.1 175.22 157.11C175.21 157.12 175.2 157.12 175.2 157.13C175.17 157.14 175.13 157.15 175.1 157.17C175.09 157.17 175.09 157.17 175.08 157.17C175.05 157.19 175.03 157.2 175 157.21C174.99 157.22 174.98 157.22 174.97 157.23C174.95 157.24 174.92 157.25 174.9 157.26C174.89 157.26 174.88 157.27 174.87 157.27C174.84 157.28 174.82 157.29 174.8 157.3C174.79 157.31 174.78 157.31 174.77 157.32C174.7 157.35 174.64 157.38 174.57 157.4C174.56 157.41 174.56 157.41 174.55 157.41C174.52 157.43 174.5 157.44 174.47 157.45C174.46 157.46 174.45 157.46 174.45 157.46C174.42 157.47 174.39 157.49 174.36 157.5C174.36 157.5 174.35 157.5 174.35 157.51C174.28 157.54 174.21 157.57 174.14 157.6L174.14 157.6C174.1 157.61 174.07 157.63 174.04 157.64C174.03 157.64 174.03 157.64 174.02 157.65C173.99 157.66 173.97 157.67 173.93 157.69C173.93 157.69 173.92 157.69 173.92 157.69C173.82 157.74 173.71 157.79 173.61 157.83C173.6 157.83 173.6 157.83 173.6 157.84C173.57 157.85 173.53 157.86 173.5 157.88C173.5 157.88 173.5 157.88 173.49 157.88C173.35 157.94 173.21 158 173.07 158.07C173.07 158.07 173.07 158.07 173.07 158.07C172.92 158.13 172.78 158.19 172.64 158.25C172.64 158.25 172.64 158.25 172.64 158.25C172.49 158.32 172.36 158.38 172.21 158.44C172.21 158.44 172.21 158.44 172.21 158.44C171.89 158.58 171.57 158.72 171.24 158.86L171.24 158.86C171.1 158.92 170.96 158.98 170.81 159.04C170.81 159.04 170.81 159.04 170.81 159.04C170.77 159.06 170.74 159.07 170.71 159.08C170.71 159.09 170.7 159.09 170.7 159.09C170.63 159.12 170.56 159.15 170.49 159.18C170.49 159.18 170.49 159.18 170.48 159.18C170.45 159.19 170.42 159.21 170.38 159.22C170.38 159.22 170.38 159.23 170.37 159.23C170.34 159.24 170.31 159.25 170.28 159.26C170.27 159.27 170.27 159.27 170.26 159.27C170.23 159.29 170.2 159.3 170.17 159.31C170.16 159.31 170.16 159.32 170.16 159.32C170.12 159.33 170.09 159.35 170.06 159.36C170.05 159.36 170.05 159.36 170.05 159.36C170.02 159.38 169.99 159.39 169.95 159.4C169.94 159.41 169.94 159.41 169.93 159.41C169.91 159.42 169.88 159.43 169.85 159.44C169.84 159.45 169.83 159.45 169.82 159.46C169.8 159.47 169.77 159.48 169.75 159.49C169.74 159.49 169.73 159.5 169.72 159.5C169.69 159.52 169.65 159.53 169.62 159.54C146.26 169.3 122.9 174.54 101.08 174.54Z" fill="#BF6700" fill-opacity="1.000000" fill-rule="nonzero"/>
		<path id="path140" d="M86.34 59.09C86.5 58.94 86.65 58.8 86.81 58.65L86.81 58.65C86.78 58.7 86.76 58.75 86.73 58.8C86.6 58.9 86.47 58.99 86.34 59.09Z" fill="#D19982" fill-opacity="1.000000" fill-rule="nonzero"/>
		<path id="path144" d="M101.66 69.89C100.56 73.38 98.64 75.92 97.42 75.54C96.21 75.15 96.12 71.97 97.22 68.48C98.33 65 100.24 62.45 101.46 62.84C102.6 63.2 102.77 66.03 101.84 69.31L101.66 69.89Z" fill="#FCE69F" fill-opacity="1.000000" fill-rule="nonzero"/>
		<path id="path148" d="M119.74 72.14C119.12 75.74 117.57 78.52 116.31 78.3C115.05 78.09 114.52 74.94 115.15 71.34C115.78 67.74 117.33 64.96 118.58 65.18C119.77 65.38 120.31 68.16 119.84 71.54L119.74 72.14Z" fill="#FCE69F" fill-opacity="1.000000" fill-rule="nonzero"/>
		<path id="path152" d="M143.08 71.41C143.59 75.03 142.97 78.16 141.7 78.34C140.43 78.51 138.97 75.68 138.46 72.06C137.96 68.44 138.58 65.32 139.84 65.14C141.03 64.98 142.4 67.45 142.99 70.81L143.08 71.41Z" fill="#FCE69F" fill-opacity="1.000000" fill-rule="nonzero"/>
		<path id="path156" d="M162.6 63.93C164.53 67.03 165.23 70.14 164.14 70.82C163.06 71.49 160.57 69.5 158.64 66.39C156.71 63.29 156.01 60.19 157.09 59.51C158.11 58.88 160.37 60.58 162.26 63.42L162.6 63.93Z" fill="#FCE69F" fill-opacity="1.000000" fill-rule="nonzero"/>
		<path id="path160" d="M177.56 51.52C180.16 54.1 181.54 56.96 180.64 57.87C179.74 58.78 176.87 57.4 174.28 54.82C171.69 52.24 170.29 49.38 171.2 48.47C172.04 47.62 174.63 48.77 177.13 51.1L177.56 51.52Z" fill="#FCE69F" fill-opacity="1.000000" fill-rule="nonzero"/>
		<path id="path164" d="M104.07 129C102.85 129 101.87 128.01 101.87 126.8C101.87 125.58 102.85 124.6 104.07 124.6C105.29 124.6 106.27 125.58 106.27 126.8C106.27 128.01 105.29 129 104.07 129Z" fill="#BF6700" fill-opacity="1.000000" fill-rule="nonzero"/>
		<path id="path168" d="M139.56 108.09C138.34 108.09 137.36 107.11 137.36 105.89C137.36 104.68 138.34 103.69 139.56 103.69C140.77 103.69 141.76 104.68 141.76 105.89C141.76 107.11 140.77 108.09 139.56 108.09Z" fill="#BF6700" fill-opacity="1.000000" fill-rule="nonzero"/>
		<path id="path172" d="M146.83 130.99C145.61 130.99 144.63 130.01 144.63 128.79C144.63 127.58 145.61 126.59 146.83 126.59C148.04 126.59 149.03 127.58 149.03 128.79C149.03 130.01 148.04 130.99 146.83 130.99Z" fill="#E99335" fill-opacity="1.000000" fill-rule="nonzero"/>
		<path id="path176" d="M168.06 104.06C166.85 104.06 165.86 103.07 165.86 101.86C165.86 100.64 166.85 99.66 168.06 99.66C169.28 99.66 170.26 100.64 170.26 101.86C170.26 103.07 169.28 104.06 168.06 104.06Z" fill="#E99335" fill-opacity="1.000000" fill-rule="nonzero"/>
		<path id="path180" d="M190.78 122.07C189.56 122.07 188.58 121.08 188.58 119.87C188.58 118.65 189.56 117.67 190.78 117.67C191.99 117.67 192.98 118.65 192.98 119.87C192.98 121.08 191.99 122.07 190.78 122.07Z" fill="#BF6700" fill-opacity="1.000000" fill-rule="nonzero"/>
		<path id="path184" d="M193.72 88.77C192.5 88.77 191.52 87.79 191.52 86.57C191.52 85.36 192.5 84.37 193.72 84.37C194.94 84.37 195.92 85.36 195.92 86.57C195.92 87.79 194.94 88.77 193.72 88.77Z" fill="#BF6700" fill-opacity="1.000000" fill-rule="nonzero"/>
		<path id="path188" d="M209.54 69.92C208.32 69.92 207.33 68.93 207.33 67.72C207.33 66.51 208.32 65.52 209.54 65.52C210.75 65.52 211.74 66.51 211.74 67.72C211.74 68.93 210.75 69.92 209.54 69.92Z" fill="#BF6700" fill-opacity="1.000000" fill-rule="nonzero"/>
		<path id="path192" d="M104.51 106.15C103.3 106.15 102.31 105.16 102.31 103.94C102.31 102.73 103.3 101.75 104.51 101.75C105.73 101.75 106.71 102.73 106.71 103.94C106.71 105.16 105.73 106.15 104.51 106.15Z" fill="#E99335" fill-opacity="1.000000" fill-rule="nonzero"/>
		<path id="path196" d="M231.12 90.64C229.9 90.64 228.92 89.66 228.92 88.44C228.92 87.23 229.9 86.24 231.12 86.24C232.33 86.24 233.32 87.23 233.32 88.44C233.32 89.66 232.33 90.64 231.12 90.64Z" fill="#BF6700" fill-opacity="1.000000" fill-rule="nonzero"/>
		<path id="path200" d="M216.85 114.67C215.64 114.67 214.65 113.69 214.65 112.47C214.65 111.26 215.64 110.27 216.85 110.27C218.07 110.27 219.05 111.26 219.05 112.47C219.05 113.69 218.07 114.67 216.85 114.67Z" fill="#E99335" fill-opacity="1.000000" fill-rule="nonzero"/>
		<path id="path204" d="M154.13 31.31C97.27 31.31 50.5 77.06 49.51 134.08C49.4 140.13 49.82 146.2 50.74 152.14C51.69 158.26 55.87 163.39 61.63 165.54C91.55 176.67 129.59 173.79 168.74 157.43C201.98 143.54 227.79 123.67 243.38 99.96C246.94 94.55 247.09 87.49 243.77 81.98C224.99 50.85 192.12 31.91 155.84 31.33C155.27 31.32 154.7 31.31 154.13 31.31ZM101.03 176.84C86.31 176.84 72.56 174.49 60.03 169.83C52.72 167.11 47.43 160.6 46.22 152.84C45.25 146.65 44.82 140.31 44.93 134C45.44 104.98 57.29 77.81 78.31 57.51C99.32 37.21 126.88 26.27 155.91 26.75C174.72 27.05 193.2 32.23 209.35 41.72C225.04 50.93 238.29 64.04 247.69 79.62C251.92 86.63 251.72 95.6 247.2 102.47C231.11 126.95 204.59 147.41 170.5 161.65C150.75 169.91 131.34 174.85 112.8 176.35C108.81 176.67 104.89 176.84 101.03 176.84Z" fill="#6D184E" fill-opacity="1.000000" fill-rule="nonzero"/>
		<path id="path208" d="M219.84 244.34C218.53 251.45 211.69 256.15 204.57 254.83C197.46 253.51 192.76 246.67 194.08 239.56C194.86 235.38 196.53 236.33 199.27 237.28C201.18 237.94 203.62 238.61 206.63 237.5C215.23 234.34 221.16 237.22 219.84 244.34Z" fill="#FCAF15" fill-opacity="1.000000" fill-rule="nonzero"/>
		<path id="path212" d="M204.55 254.82C204.55 254.82 204.55 254.82 204.55 254.82L204.55 254.82Z" fill="#FFF6AF" fill-opacity="1.000000" fill-rule="nonzero"/>
		<path id="path216" d="M204.55 254.82L204.55 254.82L204.55 254.82ZM213.31 245.78C213.64 244.98 213.88 244.14 214.04 243.26C214.65 239.98 213.7 237.61 211.67 236.31C212.12 236.27 212.56 236.25 212.98 236.25C217.9 236.25 220.77 239.14 219.86 244.26C220.15 242.62 220.04 241.22 219.62 240.06C218.13 242.35 215.89 244.46 213.31 245.78ZM219.85 244.31C219.85 244.31 219.85 244.31 219.85 244.3C219.85 244.31 219.85 244.31 219.85 244.31ZM219.85 244.29C219.85 244.28 219.86 244.27 219.86 244.26C219.86 244.27 219.85 244.28 219.85 244.29Z" fill="#FED78A" fill-opacity="1.000000" fill-rule="nonzero"/>
		<path id="path220" d="M204.57 254.83C204.57 254.83 204.56 254.83 204.55 254.83C204.56 254.83 204.57 254.83 204.57 254.83ZM219.01 247.11C219.38 246.24 219.66 245.31 219.84 244.34C219.85 244.33 219.85 244.32 219.85 244.31C219.85 244.32 219.85 244.33 219.84 244.34C219.66 245.31 219.38 246.24 219.01 247.11Z" fill="#D18126" fill-opacity="1.000000" fill-rule="nonzero"/>
		<path id="path224" d="M194.09 239.56C194.09 239.55 194.09 239.55 194.09 239.54C194.09 239.55 194.09 239.55 194.09 239.56Z" fill="#6D184E" fill-opacity="1.000000" fill-rule="nonzero"/>
		<path id="path228" d="M204.55 254.83C197.45 253.5 192.76 246.67 194.08 239.56C194.08 239.56 194.08 239.55 194.08 239.55C194.49 237.38 195.13 236.6 196.05 236.48C197.36 241.12 200.96 246.08 206.02 247.02C206.63 247.13 207.23 247.19 207.83 247.19C209.73 247.19 211.6 246.66 213.31 245.78C211.4 250.53 206.84 253.73 201.74 253.95C202.62 254.34 203.56 254.64 204.55 254.83ZM219.85 244.3C219.85 244.3 219.85 244.29 219.85 244.29C219.85 244.29 219.85 244.3 219.85 244.3ZM219.86 244.26C219.86 244.26 219.86 244.26 219.86 244.26C219.86 244.26 219.86 244.26 219.86 244.26Z" fill="#D18126" fill-opacity="1.000000" fill-rule="nonzero"/>
		<path id="path232" d="M207.06 255.05C212.27 255.02 216.97 251.87 219.01 247.11C216.97 251.87 212.27 255.02 207.06 255.05Z" fill="#D3B392" fill-opacity="1.000000" fill-rule="nonzero"/>
		<path id="path236" d="M206.98 255.05C206.19 255.05 205.38 254.98 204.57 254.83C204.57 254.83 204.56 254.83 204.55 254.83L204.55 254.83C203.56 254.64 202.62 254.34 201.74 253.95C206.84 253.73 211.4 250.53 213.32 245.78C215.89 244.46 218.13 242.35 219.62 240.06C220.04 241.22 220.15 242.62 219.86 244.26C219.86 244.26 219.86 244.26 219.86 244.26C219.86 244.27 219.86 244.28 219.85 244.29C219.85 244.29 219.85 244.3 219.85 244.3C219.85 244.31 219.85 244.31 219.85 244.31C219.85 244.32 219.85 244.33 219.84 244.34C219.66 245.31 219.38 246.24 219.01 247.11C216.97 251.87 212.27 255.02 207.06 255.05C207.03 255.05 207.01 255.05 206.98 255.05Z" fill="#D29D78" fill-opacity="1.000000" fill-rule="nonzero"/>
		<path id="path240" d="M196.64 238.81C196.55 239.02 196.44 239.39 196.33 239.98C195.81 242.82 196.42 245.69 198.05 248.07C199.69 250.45 202.15 252.05 204.99 252.58C207.83 253.1 210.7 252.5 213.09 250.86C215.47 249.22 217.07 246.76 217.59 243.92C217.85 242.53 217.89 240.64 216.6 239.55C214.93 238.15 211.42 238.19 207.42 239.65C203.32 241.16 200.07 240 197.91 239.23C197.51 239.08 196.99 238.9 196.64 238.81ZM207 257.34C206.05 257.34 205.1 257.26 204.15 257.08C200.12 256.33 196.61 254.05 194.28 250.66C191.95 247.28 191.08 243.18 191.83 239.14C192.12 237.57 192.67 235.64 194.33 234.68C196.04 233.7 197.86 234.35 199.46 234.92C201.35 235.59 203.3 236.29 205.85 235.36C211.55 233.26 216.54 233.52 219.55 236.05C221.87 238.01 222.77 241.1 222.09 244.76C221.35 248.8 219.07 252.31 215.68 254.63C213.08 256.42 210.08 257.34 207 257.34Z" fill="#6D184E" fill-opacity="1.000000" fill-rule="nonzero"/>
		<path id="path244" d="M236.88 154.11C237.81 154.53 238.89 154.42 239.76 153.91C243.39 151.78 254.95 144.75 256.9 140.6C259.07 135.98 230.34 151.1 236.88 154.11Z" fill="#E5525F" fill-opacity="1.000000" fill-rule="nonzero"/>
		<path id="path248" d="M163 316.68C105.11 316.68 58.18 311.2 58.18 304.44C58.18 297.68 105.11 292.21 163 292.21C220.88 292.21 267.81 297.68 267.81 304.44C267.81 311.2 220.88 316.68 163 316.68Z" fill="#F2A40C" fill-opacity="1.000000" fill-rule="nonzero"/>
	</g>
</svg>
